<svg xmlns="http://www.w3.org/2000/svg" viewBox="0 0 500 500"><path d="M411.86 347.2a1.22 1.22 0 00-.16-.26 1.83 1.83 0 00-.13-.16.9.9 0 00-.16-.19l-.17-.16a3.73 3.73 0 00-.65-.46L194 220.9a8 8 0 00-7.18 0L80.58 282.21l-.43.27-.14.12a2.64 2.64 0 00-.6.67 1.47 1.47 0 00-.22.46 1.42 1.42 0 000 .22 1.47 1.47 0 000 .36 2.11 2.11 0 000 .25 2.86 2.86 0 00.07.28 2.18 2.18 0 00.11.27 3.13 3.13 0 001.28 1.24l216.56 125.08a6.53 6.53 0 002.13.72 8.81 8.81 0 001.46.13 8.66 8.66 0 001.44-.12 3.55 3.55 0 00.47-.09 6.13 6.13 0 001.29-.44c.14-.06.26-.13.39-.2l106.2-61.32c1.41-.79 1.79-1.91 1.27-2.91zm-23.33-4.44l-6.79 3.93-90.49 52.2a5.49 5.49 0 01-.73.36 6.07 6.07 0 01-4.66 0 5.49 5.49 0 01-.73-.36L113.32 299.7l-8.32-4.79a3.18 3.18 0 01-.78-.62c-.86-.94-.59-2.14.78-2.94l97.24-56.14a6.12 6.12 0 013.77-1.05 3.47 3.47 0 01.93.25 3 3 0 01.48.23L388.53 339.2a2.06 2.06 0 010 3.56z" fill="#455a64"/><path d="M80.16 282.49a8.05 8.05 0 00-3.16 5.95v4.74a7.93 7.93 0 003.59 6.23l216.59 125.06a6.81 6.81 0 002.64.81c.32 0 .63.05 1 .06v-13.06a11.65 11.65 0 01-1.46-.12 6.61 6.61 0 01-2.14-.74L80.58 286.35c-1.83-1.05-1.98-2.72-.42-3.86z" fill="#37474f"/><path d="M354.49 372.67a14.45 14.45 0 00-12.82 0 5.17 5.17 0 00-1.92 1.75c-1.15 2 1 3.5 1.92 4.06a14.45 14.45 0 0012.82 0 5.42 5.42 0 001.92-1.75c1.15-2-.97-3.5-1.92-4.06z" fill="#1d9bf0"/><path d="M142.37 257.18a1.07 1.07 0 000-2 3.88 3.88 0 00-3.51 0 1.07 1.07 0 000 2 3.88 3.88 0 003.51 0zM136.86 266.78a1 1 0 000-1.8 3.49 3.49 0 00-3.12 0 1 1 0 000 1.8 3.43 3.43 0 003.12 0zM142.13 263.81l17.44-10.07c1-.55 1-1.42.1-1.94a3.7 3.7 0 00-3.35.07l-17.44 10.06c-.95.56-1 1.42-.1 1.94a3.7 3.7 0 003.35-.06zM411.07 346.29c1.48 1.15 1.32 2.78-.48 3.82l-106.21 61.32a7.22 7.22 0 01-3.59.85v13.05a7.29 7.29 0 003.58-.86l106.21-61.31a7.91 7.91 0 003.59-6.22v-4.75a8.05 8.05 0 00-3.1-5.9z" fill="#263238"/><path d="M131.24 319.27a4 4 0 011.86 3.08 1.14 1.14 0 01-.52 1.08c-.22.13-1.06.63-1.3.76a1.37 1.37 0 01-1.34-.15l-24.15-14a4 4 0 01-1.85-3.08 1.2 1.2 0 01.47-1.06l1.34-.78a1.37 1.37 0 011.34.15z" fill="#455a64"/><path d="M129.94 320l-24.15-13.94c-1-.59-1.85-.17-1.85.94a4 4 0 001.85 3.08l24.15 14c1 .59 1.86.17 1.86-.94a4 4 0 00-1.86-3.14z" fill="#263238"/><path d="M98.91 300.6a4 4 0 011.86 3.09 1.17 1.17 0 01-.51 1.08c-.23.12-1.07.63-1.3.76a1.37 1.37 0 01-1.34-.16l-11.39-6.57a4 4 0 01-1.85-3.08 1.15 1.15 0 01.47-1.06c.22-.15 1.1-.65 1.34-.78a1.34 1.34 0 011.34.15z" fill="#455a64"/><path d="M97.62 301.35l-11.39-6.57c-1-.59-1.85-.17-1.85.94a4 4 0 001.85 3.08l11.39 6.57c1 .59 1.85.17 1.85-.94a4 4 0 00-1.85-3.08z" fill="#263238"/><g><path d="M388.53 342.71l-6.79 3.92-90.49 52.21a7.05 7.05 0 01-.73.36 6.07 6.07 0 01-4.66 0 7.05 7.05 0 01-.73-.36l-171.81-99.19-8.31-4.8a2.94 2.94 0 01-.78-.61c-.86-.94-.59-2.15.78-2.95l97.24-56.13a6.12 6.12 0 013.77-1 3.47 3.47 0 01.93.25 3 3 0 01.48.23l181.1 104.56a2.06 2.06 0 010 3.51z" fill="#1d9bf0"/><path d="M388.53 342.71l-6.79 3.92-90.49 52.21a7.05 7.05 0 01-.73.36 6.07 6.07 0 01-4.66 0 7.05 7.05 0 01-.73-.36l-171.81-99.19-8.31-4.8a2.94 2.94 0 01-.78-.61c-.86-.94-.59-2.15.78-2.95l97.24-56.13a6.12 6.12 0 013.77-1 3.47 3.47 0 01.93.25 3 3 0 01.48.23l181.1 104.56a2.06 2.06 0 010 3.51z" fill="#fff" opacity=".8"/><path d="M125.54 287.51a.48.48 0 01-.14-.05l-.47-.28-1.15.67a.18.18 0 01-.2 0l-.17-.09-.08-.06a.43.43 0 010-.07l-.48-1.69a.23.23 0 010-.07.17.17 0 01.06-.06l.16-.09a.28.28 0 01.15 0 .37.37 0 01.15.05l1.66 1 .26-.14a.18.18 0 01.13 0 .3.3 0 01.15.05l.11.06c.05 0 .08.06.08.08s0 .05-.07.08l-.25.15.48.27a.19.19 0 01.08.08s0 .05-.08.08l-.19.12a.37.37 0 01-.19-.09zm-1-.6l-1.18-.69.35 1.17zM126.62 286.55a3.2 3.2 0 01-1.44-.44c-.47-.28-.73-.55-.76-.83s.16-.54.56-.78a3.43 3.43 0 01.52-.23 2.78 2.78 0 01.53-.11h.08c.02 0 0 0 0 0l.1.19h-.07a1.94 1.94 0 00-.75.24c-.27.16-.4.34-.38.54s.22.39.59.6a2.33 2.33 0 001 .35 1.65 1.65 0 00.89-.21l.26-.18a.73.73 0 00.15-.17l-.78-.45-.48.27a.19.19 0 01-.14 0 .3.3 0 01-.14-.05l-.11-.06s-.08-.06-.08-.08 0-.05.07-.08l.76-.44a.34.34 0 01.16 0 .29.29 0 01.17.06l1.11.64a.18.18 0 01.08.06v.06a1.29 1.29 0 01-.66.66 2.41 2.41 0 01-1.24.44zM136.13 280.85c.37.22.37.56 0 .77a1.42 1.42 0 01-1.33 0c-.37-.21-.37-.55 0-.77a1.48 1.48 0 011.33 0z" fill="#455a64"/><path d="M133.71 280.22c-.67.39-.88.95-.62 1.44a.43.43 0 00.4.15c.22 0 .38-.15.31-.27-.19-.35 0-.74.43-1a2.65 2.65 0 011.75-.25c.22 0 .44 0 .47-.18 0-.11-.09-.2-.26-.24a4 4 0 00-2.48.35z" fill="#455a64"/><path d="M132.64 279.61c-1 .57-1.36 1.38-1.07 2.13 0 .11.21.18.4.17.22 0 .36-.14.31-.26-.23-.61.06-1.27.87-1.74a5.08 5.08 0 013-.51c.22 0 .43 0 .45-.18 0-.11-.11-.21-.3-.23a6.08 6.08 0 00-3.66.62zM152.31 270.09a.21.21 0 01-.11 0v-.07l.2-1v-.07l.06-.06.35-.2a.2.2 0 01.11 0 .21.21 0 01.12 0l2.86 1.65a.06.06 0 010 .06.07.07 0 010 .07l-.36.21a.24.24 0 01-.12 0 .21.21 0 01-.12 0l-2.18-1.26-.12.58-.06.06a.27.27 0 01-.13 0zM154.55 268.8a.21.21 0 01-.12 0 .09.09 0 010-.07l.21-1a.19.19 0 010-.07l.05-.06.35-.2a.21.21 0 01.12 0 .24.24 0 01.12 0l2.85 1.65v.07a.07.07 0 010 .06l-.36.21a.21.21 0 01-.12 0h-.12l-2.18-1.26-.13.65a.14.14 0 01-.07.06.22.22 0 01-.12 0zM157.35 267a.27.27 0 01.12 0 .21.21 0 01.12 0l.44.25a.06.06 0 010 .06.08.08 0 010 .07l-.41.24h-.12a.21.21 0 01-.12 0l-.44-.25a.08.08 0 010-.07.09.09 0 010-.07zm1.55.89a.26.26 0 01.24 0l.43.25s.05 0 .05.07a.1.1 0 01-.05.07l-.41.23a.25.25 0 01-.24 0l-.43-.25s-.05 0-.05-.07a.07.07 0 01.05-.06zM161.93 267a.26.26 0 01-.24 0l-.53-.3-1.37.79h-.12a.22.22 0 01-.12 0l-.31-.18c-.05 0-.07-.05-.08-.08a.17.17 0 010-.1l-.34-1.75a.15.15 0 01.07-.17l.34-.2H159.46l1.77 1 .38-.22h.24l.31.19a.07.07 0 01.05.06s0 .05-.05.07l-.38.22.54.31s.05 0 0 .07a.08.08 0 010 .07zm-1.33-.62l-.94-.55.19 1zM160.73 264.22a.1.1 0 010-.07v-.07l1.66-1a.25.25 0 01.24 0l.31.18s.05 0 .05.07 0 .05-.05.07l-1.24.71.52.36a.73.73 0 01.18-.17l.18-.12a2.47 2.47 0 01.53-.22 2.13 2.13 0 01.56-.1 2.09 2.09 0 01.56 0 2 2 0 01.53.2 1 1 0 01.39.34.45.45 0 01.08.33.53.53 0 01-.17.32 2.19 2.19 0 01-.4.3 3.33 3.33 0 01-.59.26 2.91 2.91 0 01-.55.1 2.67 2.67 0 01-.5 0 1.65 1.65 0 01-.41-.14s-.05 0-.05-.07 0-.05.05-.07l.36-.21H163.2a1.23 1.23 0 00.25.05h.24l.22-.07.2-.1c.17-.1.26-.2.27-.32s-.06-.21-.22-.3a.81.81 0 00-.48-.1 1.16 1.16 0 00-.55.15 1.46 1.46 0 00-.19.13.58.58 0 00-.08.1.2.2 0 010 .08.19.19 0 01-.08.07l-.41.24H162.14zM113.2 295.04l-.92-.53 1.22-.71.92.53-1.22.71zM115.04 293.98l-1.84-1.06 1.22-.71 1.84 1.06-1.22.71zM116.88 292.92l-2.76-1.6 1.22-.7 2.77 1.59-1.23.71zM118.72 291.86l-3.68-2.13 1.23-.71 3.67 2.13-1.22.71zM201.9 240.38a1.37 1.37 0 00-.72.11l-4.59 2.64c-.3.17-.22.49.17.72l1.68 1a2 2 0 00.81.24 1.43 1.43 0 00.36 0 1 1 0 00.36-.1l4.59-2.64c.29-.18.22-.49-.18-.72l-1.67-1a2 2 0 00-.81-.25zm-2.7 4.5a.78.78 0 01-.34-.12l-1.68-1c-.29-.17-.35-.42-.13-.55l4.59-2.64a.53.53 0 01.19-.06h.11a.81.81 0 01.35.12l1.67 1c.29.17.35.42.14.54l-4.59 2.65a.64.64 0 01-.31.06z" fill="#455a64"/><path d="M198.21 242.92l2 1.14-.72.42a.44.44 0 01-.25 0l-1.47-.85c-.21-.12-.26-.31-.1-.41zM198.55 242.73l.86-.5 1.98 1.14-.87.5-1.97-1.14zM199.75 242.04l.85-.5 1.99 1.15-.86.5-1.98-1.15zM201.93 240.93l1.43.83c.26.15.21.37-.15.57l-.29.17-2-1.15.69-.39a.41.41 0 01.32-.03zM202.89 240.52a1.23 1.23 0 01.85.23l.31.18c.34.2.53.42.4.5l-.21.14-1.58-.91zM190.21 248.1l3.56-3.09 1.88 2.67-2.46-.67-2.98 1.09z" fill="#455a64"/></g><g><path d="M266 378.05v.88a4.82 4.82 0 002.19 3.79l17.16 9.9a4.83 4.83 0 004.38 0l84.57-48.85a4.85 4.85 0 002.19-3.8v-.87a4.85 4.85 0 00-2.19-3.8l-17.16-9.9a4.83 4.83 0 00-4.38 0l-84.57 48.86a4.85 4.85 0 00-2.19 3.79z" fill="#1d9bf0"/><path d="M374.55 335.5c.91.69.81 1.7-.29 2.33l-84.57 48.86a4.61 4.61 0 01-2.19.53v5.92a4.44 4.44 0 002.2-.52l84.56-48.85a4.88 4.88 0 002.19-3.8v-.87a4.87 4.87 0 00-1.9-3.6z" opacity=".15"/><path d="M267.82 374.49a4.9 4.9 0 00-1.86 3.56v.88a4.81 4.81 0 002.2 3.79l17.15 9.9a4.38 4.38 0 002.19.52v-5.92a4.58 4.58 0 01-2.19-.53l-17.16-9.9c-1.09-.62-1.15-1.6-.33-2.3z" opacity=".3"/><path d="M293.21 368.25a.88.88 0 01.44-.12 2.06 2.06 0 01.39.05l9 2.52.2.07a.16.16 0 01.09.14s0 .09-.09.13l-1.34.77a.79.79 0 01-.39.12.8.8 0 01-.29 0l-1.18-.34-2.82 1.63.59.68a.24.24 0 01.06.17c0 .07-.07.14-.21.22l-1.34.77a.41.41 0 01-.23.06.45.45 0 01-.24-.06.28.28 0 01-.11-.11l-4.38-5.2a.39.39 0 01-.08-.22c0-.09.07-.17.21-.25zm2.92 3.67l1.72-1-3.41-1zM300 364.33a6.68 6.68 0 011.56-.65 7.85 7.85 0 011.65-.25 6.31 6.31 0 011.63.15 6 6 0 011.48.52l.41.23.36.21.35.2.38.23a3 3 0 01.93.86 1.52 1.52 0 01.26.92 1.79 1.79 0 01-.42.95 3.89 3.89 0 01-1.11.89l-2.86 1.65a.52.52 0 01-.29.07.49.49 0 01-.28-.07l-6.86-3.95c-.08-.05-.12-.1-.12-.17a.18.18 0 01.12-.16zm4.31.88a2.63 2.63 0 00-2.66.13l-1.08.63 4 2.33 1.13-.66c.89-.51.95-1 .17-1.51l-.41-.25-.38-.22-.37-.21zM307.67 359.9a6.68 6.68 0 011.56-.65 7.84 7.84 0 011.66-.25 6.74 6.74 0 011.62.15 5.76 5.76 0 011.48.52l.42.23.35.21.35.2.39.23a3.08 3.08 0 01.92.86 1.46 1.46 0 01.26.92 1.69 1.69 0 01-.41.95 4 4 0 01-1.11.89l-2.87 1.65a.51.51 0 01-.28.07.52.52 0 01-.29-.07l-6.86-3.95a.22.22 0 01-.12-.17.19.19 0 01.12-.16zm4.31.88a2.63 2.63 0 00-2.66.13l-1.08.63 4 2.33 1.14-.66c.89-.51.94-1 .17-1.51l-.41-.25c-.13-.07-.26-.14-.38-.22l-.38-.21zM319.7 353a.51.51 0 01.28-.07.52.52 0 01.29.07l1.13.65a.18.18 0 01.11.16.19.19 0 01-.11.17l-1.87 1.02 5.44 3.14c.08 0 .12.1.12.17a.19.19 0 01-.12.16l-1.39.8a.49.49 0 01-.28.07.52.52 0 01-.29-.07l-5.44-3.14-1.87 1.08a.65.65 0 01-.29.07.58.58 0 01-.28-.07l-1.13-.65c-.08-.05-.12-.1-.12-.17a.19.19 0 01.12-.16zM323.34 354.06a3 3 0 01-.86-.8 1.4 1.4 0 01-.27-.9 1.83 1.83 0 01.41-.95 4.28 4.28 0 011.15-.93 6.75 6.75 0 011.61-.66 7.3 7.3 0 011.64-.24 6.17 6.17 0 011.56.16 5.77 5.77 0 011.38.49l1 .54.91.55a3 3 0 01.86.8 1.4 1.4 0 01.27.9 1.65 1.65 0 01-.41 1 3.89 3.89 0 01-1.15.92 6.59 6.59 0 01-1.61.68 7.2 7.2 0 01-1.64.23 6.17 6.17 0 01-1.56-.16 5.93 5.93 0 01-1.38-.49c-.31-.16-.62-.34-1-.53zm6.49-1.63l-.4-.26-.46-.28-.49-.27-.43-.22a2.54 2.54 0 00-.6-.22 2.74 2.74 0 00-.64-.08 2.63 2.63 0 00-.67.09 2.94 2.94 0 00-.67.27 1.49 1.49 0 00-.47.39.64.64 0 00-.15.39.62.62 0 00.13.37 1.43 1.43 0 00.38.34 3.59 3.59 0 00.38.25c.15.09.3.19.47.28l.48.27a4.83 4.83 0 00.45.23 2.91 2.91 0 001.25.3 2.46 2.46 0 001.33-.37c.44-.25.64-.5.62-.76a1 1 0 00-.51-.72zM335.21 347.26l.37.23.5.29.51.3.41.21a2.49 2.49 0 00.56.21 2.59 2.59 0 00.63.1 3.14 3.14 0 00.67-.08 2.48 2.48 0 00.71-.29 1.73 1.73 0 00.5-.39.87.87 0 00.18-.34.47.47 0 000-.29 1 1 0 00-.16-.23.59.59 0 01-.12-.21s.06-.11.18-.18l1.39-.8a.55.55 0 01.46 0 1.93 1.93 0 01.76.74 1.29 1.29 0 01.13.88 2.21 2.21 0 01-.49.93 4.06 4.06 0 01-1.1.87 6.42 6.42 0 01-1.59.65 6.7 6.7 0 01-1.64.24 6.2 6.2 0 01-1.57-.16 5.16 5.16 0 01-1.37-.49c-.31-.15-.62-.33-1-.52s-.64-.38-.93-.57a2.74 2.74 0 01-.86-.78 1.5 1.5 0 01-.26-.91 1.73 1.73 0 01.4-.95 3.83 3.83 0 011.14-.92 6.51 6.51 0 011.51-.63 8.3 8.3 0 011.6-.29 6.44 6.44 0 011.53.08 3.94 3.94 0 011.28.43.17.17 0 01.1.14.14.14 0 01-.1.13l-1.39.81a.62.62 0 01-.31.1 2.36 2.36 0 01-.35-.07 2.15 2.15 0 00-.4-.09 2 2 0 00-.5 0 3.47 3.47 0 00-.59.1 3 3 0 00-.68.3 1.46 1.46 0 00-.5.41.62.62 0 00-.14.38.64.64 0 00.16.37 2.37 2.37 0 00.37.29zM341.93 340.12a.88.88 0 01.44-.12 2.06 2.06 0 01.39.05l9 2.52.2.07c.07 0 .1.08.1.14s0 .09-.1.13l-1.33.77a.86.86 0 01-.4.12 1 1 0 01-.28 0l-1.18-.34-2.83 1.63.59.68a.24.24 0 01.06.17c0 .07-.07.14-.21.22l-1.34.78a.55.55 0 01-.46 0 .34.34 0 01-.12-.12l-4.37-5.2a.33.33 0 01-.08-.22c0-.09.06-.17.2-.26zm2.92 3.67l1.72-1-3.41-1zM348.79 336.16a7.85 7.85 0 011.4-.63 5.87 5.87 0 011.38-.29 4.78 4.78 0 011.36.1 4.48 4.48 0 011.28.5 2.16 2.16 0 011 1 1 1 0 01-.13 1l3.84.7a.37.37 0 01.15.05c.07 0 .1.08.1.14s0 .09-.1.13l-1.44.83a.66.66 0 01-.4.12h-.33l-3.45-.63-1 .56 2.27 1.31c.08 0 .12.1.12.17a.19.19 0 01-.12.16l-1.39.8a.51.51 0 01-.28.07.52.52 0 01-.29-.07l-6.86-3.95a.19.19 0 01-.11-.17.2.2 0 01.11-.17zm2 2.55L352 338a1.33 1.33 0 00.57-.52c.08-.18 0-.36-.32-.53a1.36 1.36 0 00-.91-.18 2.48 2.48 0 00-.91.32l-1.2.7zM358.39 330.62a.64.64 0 01.58 0l1.12.65a.19.19 0 01.12.16c0 .07 0 .12-.12.17l-1.87 1.08 5.45 3.14a.19.19 0 01.11.17.18.18 0 01-.11.16l-1.39.81a.73.73 0 01-.58 0l-5.44-3.15-1.87 1.08a.61.61 0 01-.28.07.62.62 0 01-.29-.07l-1.13-.65a.21.21 0 01-.11-.17.19.19 0 01.11-.16zM280 374c-2.69 1.55-2.69 4.06 0 5.6a10.72 10.72 0 009.71 0c2.68-1.54 2.68-4.05 0-5.6a10.72 10.72 0 00-9.71 0zm8 1.83l-1.8 1 1.8 1a.36.36 0 010 .69 1.31 1.31 0 01-1.19 0l-1.81-1-1.8 1a1.31 1.31 0 01-1.19 0 .36.36 0 010-.69l1.8-1-1.8-1a.36.36 0 010-.69 1.31 1.31 0 011.19 0l1.8 1 1.81-1a1.31 1.31 0 011.19 0 .36.36 0 01-.08.72z" fill="#455a64"/></g><g><path d="M298.2 308.63a14.86 14.86 0 00-6.66-11.7c-1.94-1.14-3.69-1.19-4.93-.38l-4.55 2.56 9.55 16.47 4.51-2.56c1.26-.69 2.06-2.2 2.08-4.39z" fill="#37474f"/><path d="M286.81 299.61a14.91 14.91 0 016.66 11.7c0 4.3-3.06 6-6.76 3.85a14.91 14.91 0 01-6.66-11.7c.03-4.3 3.06-6.02 6.76-3.85z" fill="#455a64"/><path d="M284.49 306.06c0-1.68 1-2.45 2.29-1.71a5.43 5.43 0 012.25 4.37c0 1.68-1 2.44-2.29 1.71a5.48 5.48 0 01-2.25-4.37z" fill="#263238"/><path d="M293.47 311.31a12.35 12.35 0 00-.92-4.5L281 300.1a5.78 5.78 0 00-.94 3.36v.16l13.4 7.78s.01-.06.01-.09z" opacity=".15"/><path d="M250.32 345.22a14.41 14.41 0 01-7.12-1.28l-63-36.31c-3.81-1.92-8.09-6.9-8.36-11.62l-1.93-44.91 3.51-.2 1.94 44.92c.18 3.2 3.53 7.22 6.41 8.66l63.05 36.32a12.11 12.11 0 0010.58-.61l42-24.22c1-.66 1.59-1.45 1.55-2.12s-.67-1.33-1.74-1.87l-67.49-39.18c-3.8-1.91-8.06-6.9-8.33-11.62l-.94-24.91 3.51-.19.94 24.9c.18 3.22 3.53 7.23 6.4 8.67l67.49 39.19c2.25 1.13 3.55 2.84 3.67 4.81s-1 3.88-3.13 5.26l-42 24.22a14.57 14.57 0 01-7.01 2.09z" fill="#455a64"/><path d="M239 344.21a14.86 14.86 0 00-6.66-11.7c-1.94-1.14-3.69-1.2-4.92-.38l-4.56 2.56 9.55 16.47 4.51-2.56c1.24-.69 2.08-2.2 2.08-4.39z" fill="#37474f"/><path d="M227.59 335.19a14.86 14.86 0 016.66 11.71c0 4.29-3.05 6-6.76 3.84a14.88 14.88 0 01-6.65-11.7c.03-4.29 3.05-6.04 6.75-3.85z" fill="#455a64"/><path d="M225.27 341.64c0-1.68 1-2.45 2.29-1.71a5.41 5.41 0 012.25 4.37c0 1.67-1 2.44-2.28 1.7a5.44 5.44 0 01-2.26-4.36z" fill="#263238"/><path d="M192.42 317.36a14.86 14.86 0 00-6.63-11.71c-1.95-1.14-3.69-1.2-4.93-.39l-4.56 2.55 9.52 16.49 4.52-2.56c1.26-.68 2.06-2.19 2.08-4.38z" fill="#37474f"/><path d="M181.05 308.33a14.88 14.88 0 016.64 11.67c0 4.29-3.07 6-6.77 3.83a14.86 14.86 0 01-6.63-11.71c.03-4.26 3.06-5.97 6.76-3.79z" fill="#455a64"/><path d="M178.72 314.76c0-1.67 1-2.44 2.29-1.7a5.45 5.45 0 012.25 4.37c0 1.68-1 2.44-2.3 1.71a5.49 5.49 0 01-2.24-4.38z" fill="#263238"/><path d="M162.38 196.68a11.71 11.71 0 014.49-12.46l41.91-23.69c3.81-2.5 8-.76 9.32 3.59l2.91 9.43-2.88 1.68-3.13-9.53a3.17 3.17 0 00-5-1.75L169.19 187a7.69 7.69 0 00-2.93 8l2.46 9.05-3.43 2z" fill="#455a64"/><path fill="#1d9bf0" d="M227.18 242.12l-56.3 32.51 82.28 47.5 56.3-32.51-82.28-47.5z"/><path opacity=".5" d="M227.18 242.12l-56.3 32.51 82.28 47.5 56.3-32.51-82.28-47.5z"/><path fill="#1d9bf0" d="M165.29 206.11l55.72-32.55 6.17 68.56-56.3 32.51-5.59-68.52z"/><path opacity=".35" d="M165.29 206.11l55.72-32.55 6.17 68.56-56.3 32.51-5.59-68.52z"/><path d="M221 173.56l6.17 68.56 82.28 47.5 13-57.51zm28.77 65.92a4.73 4.73 0 01-5.9-3.06l-13.6-35.29a4.44 4.44 0 118.23-3.13l13.6 35.29a4.72 4.72 0 01-2.32 6.19zm25.69 12.08a4.71 4.71 0 01-5.9-3.05L256 213.22a4.44 4.44 0 118.22-3.17l13.6 35.29a4.71 4.71 0 01-2.35 6.22zm25.69 12.09a4.71 4.71 0 01-5.9-3l-13.59-35.29a4.43 4.43 0 118.21-3.17l13.6 35.29a4.71 4.71 0 01-2.31 6.17z" fill="#1d9bf0"/><path d="M221 173.56l6.17 68.56 82.28 47.5 13-57.51zm28.77 65.92a4.73 4.73 0 01-5.9-3.06l-13.6-35.29a4.44 4.44 0 118.23-3.13l13.6 35.29a4.72 4.72 0 01-2.32 6.19zm25.69 12.08a4.71 4.71 0 01-5.9-3.05L256 213.22a4.44 4.44 0 118.22-3.17l13.6 35.29a4.71 4.71 0 01-2.35 6.22zm25.69 12.09a4.71 4.71 0 01-5.9-3l-13.59-35.29a4.43 4.43 0 118.21-3.17l13.6 35.29a4.71 4.71 0 01-2.31 6.17z" opacity=".23"/><path d="M165.29 206.11l5.59 68.52 82.28 47.5 13-57.5zm32.48 67.45a4.73 4.73 0 01-5.9-3.06l-13.59-35.29a4.43 4.43 0 118.21-3.16l13.6 35.28a4.72 4.72 0 01-2.32 6.23zm25.69 12.08a4.71 4.71 0 01-5.9-3.05L204 247.3a4.44 4.44 0 118.22-3.17l13.59 35.29a4.71 4.71 0 01-2.35 6.22zm25.69 12.09a4.7 4.7 0 01-5.89-3.05l-13.6-35.29a4.44 4.44 0 118.22-3.17l13.59 35.29a4.71 4.71 0 01-2.32 6.22z" fill="#1d9bf0"/><path d="M165.29 206.11l5.59 68.52 82.28 47.5 13-57.5zm32.48 67.45a4.73 4.73 0 01-5.9-3.06l-13.59-35.29a4.43 4.43 0 118.21-3.16l13.6 35.28a4.72 4.72 0 01-2.32 6.23zm25.69 12.08a4.71 4.71 0 01-5.9-3.05L204 247.3a4.44 4.44 0 118.22-3.17l13.59 35.29a4.71 4.71 0 01-2.35 6.22zm25.69 12.09a4.7 4.7 0 01-5.89-3.05l-13.6-35.29a4.44 4.44 0 118.22-3.17l13.59 35.29a4.71 4.71 0 01-2.32 6.22z" opacity=".15"/><path fill="#1d9bf0" d="M266.15 264.63l56.3-32.51-12.99 57.51-56.3 32.5 12.99-57.5z"/><path opacity=".4" d="M266.15 264.63l56.3-32.51-12.99 57.51-56.3 32.5 12.99-57.5z"/></g><g><path fill="#37474f" d="M286.43 140.48l-6.5 3.81.02-19.69-3.94-2.27-17.84 10.3-.03 24.29-10.4 5.89 23.28 15.1 19.35-35.16-3.94-2.27z"/><path fill="#455a64" d="M262.11 134.9l-.03 24.29-10.4 5.9 19.34 12.82 19.35-35.16-10.45 6.14.03-24.29-17.84 10.3z"/><path fill="#263238" d="M258.17 132.63l3.94 2.27-.03 24.29-3.94-2.27.03-24.29z"/></g></svg>